# Made using Asset Forge (www.assetforge.io) version 1.3 

mtllib MapSelector.mtl 

g solar_square%_0

v 0.4270787 0 -0.5
v 0.4270787 -0.1 -0.5
v 0.5 0 -0.4270787
v 0.5 -0.1 -0.4270787
v 0.5 -0.1 0.4270787
v 0.4270787 -0.1 0.5
v 0.5 0 0.4270787
v 0.4270787 0 0.5
v -0.4270787 -0.1 -0.5
v -0.4270787 0 -0.5
v -0.5 -0.1 -0.4270787
v -0.5 0 -0.4270787
v -0.4270787 -0.1 0.5
v -0.5 -0.1 0.4270787
v -0.4270787 0 0.5
v -0.5 0 0.4270787
v -0.4007278 0 -0.4007278
v -0.4007278 -0.02 -0.4007278
v -0.4007278 0 0.4007278
v -0.4007278 -0.02 0.4007278
v 0.4007278 0 -0.4007278
v 0.4007278 0 0.4007278
v 0.4007278 -0.02 0.4007278
v 0.4007278 -0.02 -0.4007278
vn 0.7071068 0 -0.7071068
vn 0.7071068 0 0.7071068
vn -0.7071068 0 -0.7071068
vn -0.7071068 0 0.7071068
vn 1 0 0
vn 0 -1 0
vn -1 0 0
vn 0 1 0
vn 0 0 -1
vn 0 0 1
vt -0.4270787 0
vt -0.4270787 -0.1
vt -0.5 0
vt -0.5 -0.1
vt 0.5 -0.1
vt 0.4270787 -0.1
vt 0.5 0
vt 0.4270787 0
vt -0.5 -0.4270787
vt -0.5 0.4270787
vt -0.4270787 -0.5
vt -0.4270787 0.5
vt 0.4270787 -0.5
vt 0.4270787 0.5
vt 0.5 -0.4270787
vt 0.5 0.4270787
vt 0.4007278 0
vt 0.4007278 -0.02
vt -0.4007278 0
vt -0.4007278 -0.02
vt -0.4007278 -0.4007278
vt -0.4007278 0.4007278
vt 0.4007278 -0.4007278
vt 0.4007278 0.4007278

usemtl _defaultMat (Instance)
usemap _defaultMat (Instance)
f 3/3/1 2/2/1 1/1/1
f 2/2/1 3/3/1 4/4/1
f 7/7/2 6/6/2 5/5/2
f 6/6/2 7/7/2 8/8/2
f 11/5/3 10/8/3 9/6/3
f 10/8/3 11/5/3 12/7/3
f 15/1/4 14/4/4 13/2/4
f 14/4/4 15/1/4 16/3/4
f 7/1/5 4/6/5 3/8/5
f 4/6/5 7/1/5 5/2/5
f 6/11/6 4/10/6 5/9/6
f 4/10/6 6/11/6 2/12/6
f 2/12/6 6/11/6 13/13/6
f 2/12/6 13/13/6 9/14/6
f 9/14/6 13/13/6 14/15/6
f 9/14/6 14/15/6 11/16/6
f 14/6/7 12/1/7 11/2/7
f 12/1/7 14/6/7 16/8/7
f 19/19/5 18/18/5 17/17/5
f 18/18/5 19/19/5 20/20/5
f 1/11/8 7/10/8 3/9/8
f 7/10/8 1/11/8 8/12/8
f 8/12/8 1/11/8 21/21/8
f 22/22/8 8/12/8 21/21/8
f 21/21/8 1/11/8 10/13/8
f 21/21/8 10/13/8 17/23/8
f 17/23/8 10/13/8 19/24/8
f 8/12/8 22/22/8 15/14/8
f 15/14/8 22/22/8 19/24/8
f 15/14/8 19/24/8 10/13/8
f 15/14/8 10/13/8 12/15/8
f 15/14/8 12/15/8 16/16/8
f 19/17/9 23/20/9 20/18/9
f 23/20/9 19/17/9 22/19/9
f 8/8/10 13/2/10 6/6/10
f 13/2/10 8/8/10 15/1/10
f 9/6/9 1/1/9 2/2/9
f 1/1/9 9/6/9 10/8/9
f 23/18/7 21/19/7 24/20/7
f 21/19/7 23/18/7 22/17/7
f 21/17/10 18/20/10 24/18/10
f 18/20/10 21/17/10 17/19/10

usemtl satellite (Instance)
usemap satellite (Instance)
f 18/23/8 23/22/8 24/21/8
f 23/22/8 18/23/8 20/24/8
g solar_square%_1


usemtl _defaultMat (Instance) (Instance)
usemap _defaultMat (Instance) (Instance)
f 3/3/1 2/2/1 1/1/1
f 2/2/1 3/3/1 4/4/1
f 7/7/2 6/6/2 5/5/2
f 6/6/2 7/7/2 8/8/2
f 11/5/3 10/8/3 9/6/3
f 10/8/3 11/5/3 12/7/3
f 15/1/4 14/4/4 13/2/4
f 14/4/4 15/1/4 16/3/4
f 7/1/5 4/6/5 3/8/5
f 4/6/5 7/1/5 5/2/5
f 6/11/6 4/10/6 5/9/6
f 4/10/6 6/11/6 2/12/6
f 2/12/6 6/11/6 13/13/6
f 2/12/6 13/13/6 9/14/6
f 9/14/6 13/13/6 14/15/6
f 9/14/6 14/15/6 11/16/6
f 14/6/7 12/1/7 11/2/7
f 12/1/7 14/6/7 16/8/7
f 19/19/5 18/18/5 17/17/5
f 18/18/5 19/19/5 20/20/5
f 1/11/8 7/10/8 3/9/8
f 7/10/8 1/11/8 8/12/8
f 8/12/8 1/11/8 21/21/8
f 22/22/8 8/12/8 21/21/8
f 21/21/8 1/11/8 10/13/8
f 21/21/8 10/13/8 17/23/8
f 17/23/8 10/13/8 19/24/8
f 8/12/8 22/22/8 15/14/8
f 15/14/8 22/22/8 19/24/8
f 15/14/8 19/24/8 10/13/8
f 15/14/8 10/13/8 12/15/8
f 15/14/8 12/15/8 16/16/8
f 19/17/9 23/20/9 20/18/9
f 23/20/9 19/17/9 22/19/9
f 8/8/10 13/2/10 6/6/10
f 13/2/10 8/8/10 15/1/10
f 9/6/9 1/1/9 2/2/9
f 1/1/9 9/6/9 10/8/9
f 23/18/7 21/19/7 24/20/7
f 21/19/7 23/18/7 22/17/7
f 21/17/10 18/20/10 24/18/10
f 18/20/10 21/17/10 17/19/10

usemtl satellite (Instance) (Instance)
usemap satellite (Instance) (Instance)
f 18/23/8 23/22/8 24/21/8
f 23/22/8 18/23/8 20/24/8
